<svg width="504" height="505" viewBox="0 0 504 505" fill="none" xmlns="http://www.w3.org/2000/svg">
<path d="M175.77 445.956L180.751 448.38L147.25 480.607L142.346 478.22L147.032 431.972L152.013 434.396L147.665 473.132L147.972 473.281L175.77 445.956ZM166.472 460.389L146.394 450.618L148.445 446.403L168.523 456.174L166.472 460.389ZM136.227 425.442L109.094 459.617L97.5462 450.449C94.8763 448.329 93.0469 446.133 92.058 443.861C91.0602 441.599 90.7768 439.352 91.2078 437.119C91.6388 434.886 92.6537 432.762 94.2523 430.749C95.851 428.735 97.6802 427.276 99.74 426.372C101.8 425.469 104.034 425.247 106.443 425.709C108.842 426.181 111.366 427.469 114.014 429.571L123.359 436.99L120.391 440.728L111.18 433.415C109.355 431.966 107.675 431.067 106.138 430.718C104.591 430.36 103.178 430.472 101.9 431.053C100.602 431.637 99.4103 432.613 98.3239 433.981C97.2375 435.35 96.5439 436.749 96.2431 438.178C95.9422 439.608 96.1328 441.047 96.8147 442.495C97.4878 443.955 98.7477 445.418 100.594 446.884L107.87 452.66L132.089 422.157L136.227 425.442ZM107.952 428.023L111.731 405.993L116.536 409.809L112.624 431.732L107.952 428.023ZM102.293 397.125L68.7631 425.051L51.9095 404.815L55.5114 401.815L68.9834 417.991L80.313 408.555L67.7137 393.427L71.3156 390.427L83.9149 405.555L95.31 396.065L81.6198 379.627L85.2217 376.627L102.293 397.125ZM75.6513 362.807L78.2201 367.715L32.1288 373.753L29.5995 368.92L60.8315 334.49L63.4003 339.399L36.9015 367.985L37.0596 368.287L75.6513 362.807ZM59.6006 368.899L49.2466 349.115L53.3997 346.941L63.7537 366.725L59.6006 368.899ZM49.2724 299.184L50.0873 304.664L4.56868 295.234L3.76633 289.839L44.5711 267.572L45.386 273.051L10.9707 291.353L11.0209 291.69L49.2724 299.184ZM32.1115 299.669L28.8268 277.582L33.4634 276.892L36.748 298.979L32.1115 299.669ZM43.8506 254.968L0.321439 251.911L0.69154 246.64L22.2861 248.156L22.3219 247.646L2.10031 226.576L2.58383 219.689L20.9396 239.347L46.113 222.746L45.6653 229.122L24.3685 242.835L30.1078 248.706L44.2207 249.696L43.8506 254.968ZM48.6633 208.519L47.0757 213.827L9.86118 185.971L11.4243 180.745L57.8222 177.899L56.2346 183.207L17.3055 185.173L17.2078 185.5L48.6633 208.519ZM32.9189 201.675L39.3179 180.282L43.8088 181.625L37.4098 203.018L32.9189 201.675ZM45.5929 129.388C43.5833 128.558 41.6143 128.645 39.6858 129.651C37.7574 130.656 36.1489 132.312 34.8603 134.618C33.918 136.305 33.3664 137.933 33.2054 139.503C33.0513 141.06 33.2542 142.459 33.8141 143.699C34.381 144.927 35.272 145.88 36.4872 146.559C37.5041 147.127 38.5134 147.374 39.5152 147.299C40.5116 147.205 41.4663 146.909 42.3795 146.41C43.2803 145.904 44.1212 145.317 44.9023 144.647C45.671 143.97 46.3458 143.33 46.9268 142.727L50.1299 139.44C50.9446 138.593 51.9208 137.69 53.0586 136.732C54.2033 135.76 55.4842 134.938 56.9014 134.266C58.313 133.574 59.8371 133.205 61.4735 133.159C63.1099 133.113 64.8209 133.589 66.6066 134.587C68.6651 135.737 70.2237 137.316 71.2827 139.323C72.3485 141.318 72.7962 143.618 72.6258 146.224C72.4623 148.817 71.563 151.577 69.928 154.504C68.4038 157.232 66.6438 159.348 64.648 160.853C62.659 162.345 60.5584 163.221 58.3462 163.482C56.1409 163.731 53.955 163.348 51.7886 162.332L54.449 157.571C55.9567 158.25 57.4174 158.432 58.8309 158.115C60.239 157.779 61.5362 157.088 62.7224 156.043C63.9032 154.978 64.9162 153.689 65.7615 152.176C66.7452 150.415 67.3434 148.674 67.5558 146.955C67.7559 145.228 67.5699 143.667 66.9979 142.274C66.4135 140.874 65.4269 139.785 64.0381 139.01C62.7732 138.303 61.5465 138.081 60.358 138.345C59.1695 138.608 58.0051 139.178 56.8647 140.054C55.7244 140.93 54.5941 141.934 53.4739 143.065L49.5158 147.004C46.9974 149.502 44.4597 151.176 41.9025 152.025C39.3453 152.875 36.7832 152.582 34.2163 151.148C32.0835 149.957 30.5456 148.341 29.6026 146.301C28.6542 144.241 28.2871 141.986 28.5013 139.535C28.71 137.064 29.4934 134.614 30.8513 132.183C32.223 129.728 33.8826 127.792 35.8299 126.374C37.7649 124.949 39.8006 124.101 41.9369 123.831C44.0802 123.547 46.1303 123.912 48.087 124.923L45.5929 129.388ZM85.0415 128.312L52.6975 99.0201L56.2445 95.1035L70.6477 108.147L86.2661 90.9015L71.8629 77.8575L75.4099 73.9409L107.754 103.232L104.207 107.149L89.7405 94.048L74.1221 111.294L88.5885 124.395L85.0415 128.312ZM96.7725 54.033L123.591 88.4553L119.423 91.7029L92.6041 57.2805L96.7725 54.033ZM158.476 66.7716L153.349 68.8692L151.655 22.415L156.704 20.3496L188.057 54.6697L182.929 56.7673L156.951 27.7072L156.636 27.8362L158.476 66.7716ZM153.915 50.2208L174.582 41.7656L176.357 46.1041L155.69 54.5593L153.915 50.2208ZM200.129 50.9754L192.807 7.95758L207.343 5.48375C210.703 4.91177 213.56 5.0164 215.912 5.79764C218.261 6.56487 220.123 7.85454 221.498 9.66663C222.873 11.4787 223.776 13.6521 224.207 16.1866C224.638 18.7212 224.503 21.0569 223.8 23.1937C223.098 25.3305 221.77 27.1414 219.819 28.6263C217.864 30.0971 215.221 31.1162 211.888 31.6834L200.125 33.6854L199.325 28.9803L210.919 27.0069C213.216 26.6161 215.007 25.9654 216.293 25.0549C217.593 24.1421 218.453 23.0159 218.873 21.6764C219.305 20.3204 219.375 18.7813 219.082 17.0589C218.789 15.3365 218.21 13.886 217.347 12.7073C216.484 11.5287 215.285 10.7096 213.752 10.2502C212.216 9.7767 210.286 9.73778 207.961 10.1334L198.803 11.6921L205.338 50.0888L200.129 50.9754ZM217.088 28.2048L230.964 45.7274L224.914 46.757L211.207 29.2057L217.088 28.2048ZM243.866 44.6226L245.454 1.01511L271.772 1.97364L271.601 6.65804L250.564 5.89183L250.028 20.6264L269.702 21.343L269.531 26.0273L249.857 25.3108L249.317 40.1305L270.695 40.9091L270.525 45.5935L243.866 44.6226ZM287.204 47.6874L281.834 46.3278L308.077 7.95876L313.364 9.29752L318.187 55.5317L312.817 54.1721L309.191 15.3622L308.861 15.2786L287.204 47.6874ZM293.371 31.6654L315.017 37.146L313.867 41.6901L292.22 36.2095L293.371 31.6654ZM352.194 70.4808L347.568 67.4333L384.953 39.8074L389.508 42.8081L378.883 88.0627L374.257 85.0151L383.575 47.1665L383.291 46.9789L352.194 70.4808ZM363.279 57.3716L381.926 69.6554L379.347 73.5699L360.7 61.2861L363.279 57.3716ZM388.751 95.9378L420.1 65.583L423.775 69.379L408.224 84.4379L408.579 84.8052L437.767 83.8286L442.569 88.788L415.679 89.3195L411.221 119.143L406.775 114.551L410.794 89.5422L402.591 89.8923L392.427 99.7339L388.751 95.9378ZM420.114 130.538L417.218 125.815L462.792 116.661L465.644 121.311L436.823 157.782L433.926 153.06L458.422 122.74L458.244 122.45L420.114 130.538ZM435.714 123.37L447.387 142.405L443.392 144.856L431.718 125.821L435.714 123.37ZM481.132 181.011C483.09 180.067 484.337 178.541 484.874 176.433C485.41 174.325 485.248 172.023 484.388 169.524C483.759 167.698 482.914 166.201 481.851 165.035C480.793 163.882 479.615 163.1 478.318 162.691C477.025 162.295 475.72 162.323 474.404 162.776C473.302 163.155 472.446 163.743 471.833 164.54C471.239 165.345 470.824 166.254 470.587 167.267C470.363 168.276 470.24 169.294 470.219 170.323C470.211 171.348 470.238 172.277 470.3 173.112L470.615 177.691C470.702 178.863 470.724 180.192 470.68 181.679C470.641 183.18 470.4 184.683 469.956 186.187C469.531 187.701 468.79 189.083 467.733 190.333C466.676 191.583 465.181 192.541 463.247 193.207C461.017 193.974 458.801 194.084 456.599 193.535C454.402 192.999 452.389 191.799 450.56 189.935C448.736 188.084 447.279 185.574 446.188 182.404C445.171 179.449 444.767 176.727 444.976 174.236C445.19 171.759 445.937 169.609 447.217 167.786C448.502 165.976 450.245 164.603 452.446 163.665L454.221 168.822C452.71 169.493 451.601 170.461 450.894 171.725C450.206 172.999 449.856 174.426 449.845 176.008C449.851 177.598 450.136 179.212 450.701 180.851C451.357 182.758 452.256 184.364 453.396 185.669C454.55 186.969 455.836 187.871 457.256 188.374C458.69 188.872 460.158 188.862 461.663 188.344C463.033 187.872 464.016 187.106 464.612 186.044C465.208 184.983 465.559 183.735 465.667 182.301C465.774 180.867 465.779 179.355 465.683 177.766L465.386 172.19C465.203 168.647 465.647 165.64 466.719 163.168C467.791 160.696 469.717 158.981 472.497 158.024C474.808 157.229 477.037 157.16 479.186 157.817C481.354 158.483 483.279 159.713 484.963 161.507C486.666 163.31 487.97 165.527 488.876 168.16C489.791 170.819 490.128 173.347 489.887 175.744C489.659 178.136 488.933 180.218 487.711 181.991C486.493 183.777 484.855 185.062 482.796 185.846L481.132 181.011ZM455.625 211.129L499.027 206.615L499.573 211.871L480.246 213.881L482.653 237.023L501.98 235.013L502.527 240.269L459.124 244.783L458.578 239.527L477.99 237.508L475.584 214.366L456.171 216.385L455.625 211.129ZM503.102 269.388L459.565 266.438L459.923 261.166L503.459 264.116L503.102 269.388ZM453.109 305.224L494.372 319.419L485.805 344.321L481.372 342.797L488.22 322.89L474.278 318.094L467.874 336.711L463.441 335.186L469.845 316.569L455.822 311.745L448.864 331.974L444.431 330.449L453.109 305.224ZM426.232 365.561L429.601 361.163L454.502 400.416L451.185 404.747L406.8 390.935L410.168 386.537L447.259 398.519L447.467 398.249L426.232 365.561ZM438.521 377.549L424.944 395.277L421.223 392.427L434.8 374.699L438.521 377.549ZM398.25 400.229L426.376 433.592L415.103 443.095C412.496 445.292 409.981 446.651 407.558 447.17C405.144 447.7 402.885 447.533 400.781 446.668C398.678 445.804 396.797 444.389 395.14 442.423C393.483 440.457 392.415 438.375 391.937 436.177C391.459 433.979 391.685 431.746 392.614 429.476C393.552 427.217 395.314 424.998 397.899 422.819L407.021 415.129L410.097 418.778L401.105 426.359C399.324 427.86 398.11 429.329 397.464 430.766C396.806 432.212 396.636 433.619 396.953 434.987C397.268 436.374 397.989 437.736 399.115 439.072C400.241 440.408 401.475 441.365 402.817 441.943C404.159 442.521 405.607 442.619 407.162 442.237C408.726 441.866 410.409 440.921 412.212 439.401L419.314 433.414L394.21 403.635L398.25 400.229ZM395.181 428.455L374.336 420.389L379.027 416.434L399.742 424.61L395.181 428.455ZM363.769 427.877L384.441 466.306L361.249 478.782L359.028 474.654L377.567 464.681L370.582 451.697L353.244 461.023L351.023 456.895L368.362 447.568L361.336 434.508L342.497 444.643L340.276 440.515L363.769 427.877ZM324.824 447.129L330.147 445.595L326.834 491.962L321.592 493.473L294.113 455.979L299.436 454.445L322.138 486.131L322.465 486.037L324.824 447.129ZM327.578 464.075L306.122 470.258L304.824 465.754L326.28 459.57L327.578 464.075ZM258.992 460.467L257.734 504.085L252.452 503.933L253.076 482.294L252.565 482.28L232.347 503.353L225.446 503.154L244.33 484.003L226.705 459.536L233.094 459.72L247.673 480.433L253.303 474.457L253.711 460.315L258.992 460.467Z" fill="white"/>
</svg>
