<svg width="503" height="504" viewBox="0 0 503 504" fill="none" xmlns="http://www.w3.org/2000/svg">
<path d="M196.368 453.025L201.576 454.914L171.638 490.474L166.51 488.615L166.323 442.13L171.531 444.019L171.267 482.996L171.587 483.113L196.368 453.025ZM188.635 468.352L167.643 460.74L169.241 456.334L190.233 463.946L188.635 468.352ZM117.197 451.582C116.255 453.541 116.231 455.512 117.125 457.494C118.019 459.477 119.581 461.177 121.81 462.594C123.44 463.631 125.034 464.274 126.592 464.524C128.138 464.766 129.547 464.643 130.817 464.155C132.075 463.658 133.077 462.823 133.824 461.648C134.449 460.665 134.753 459.672 134.735 458.667C134.697 457.667 134.456 456.697 134.01 455.757C133.556 454.829 133.017 453.956 132.392 453.138C131.76 452.332 131.16 451.622 130.591 451.008L127.491 447.623C126.692 446.762 125.846 445.736 124.954 444.545C124.049 443.347 123.301 442.022 122.71 440.569C122.099 439.12 121.818 437.577 121.865 435.941C121.912 434.305 122.485 432.624 123.582 430.897C124.847 428.908 126.512 427.441 128.576 426.498C130.628 425.547 132.95 425.231 135.542 425.549C138.122 425.86 140.826 426.914 143.655 428.713C146.292 430.389 148.305 432.267 149.694 434.345C151.071 436.415 151.827 438.562 151.962 440.786C152.084 443.002 151.578 445.162 150.441 447.268L145.838 444.341C146.602 442.874 146.866 441.426 146.631 439.997C146.375 438.572 145.759 437.238 144.782 435.994C143.786 434.755 142.557 433.67 141.094 432.74C139.392 431.658 137.689 430.962 135.984 430.652C134.271 430.354 132.703 430.451 131.279 430.943C129.848 431.447 128.705 432.37 127.852 433.713C127.074 434.936 126.783 436.148 126.979 437.349C127.174 438.551 127.677 439.746 128.487 440.934C129.297 442.122 130.235 443.308 131.301 444.491L135.009 448.666C137.36 451.322 138.886 453.951 139.589 456.552C140.292 459.154 139.854 461.695 138.277 464.176C136.966 466.238 135.265 467.682 133.175 468.507C131.065 469.337 128.792 469.575 126.357 469.222C123.903 468.874 121.501 467.952 119.151 466.458C116.778 464.949 114.939 463.183 113.634 461.158C112.321 459.145 111.591 457.065 111.442 454.916C111.281 452.76 111.761 450.734 112.882 448.838L117.197 451.582ZM118.365 412.137L87.2883 442.77L83.5788 439.007L97.4175 425.366L81.0838 408.796L67.2451 422.437L63.5356 418.674L94.6119 388.041L98.3214 391.804L84.4221 405.505L100.756 422.075L114.655 408.374L118.365 412.137ZM44.8795 396.242L80.7521 371.397L83.7607 375.741L47.8881 400.586L44.8795 396.242ZM34.4263 379.859L31.7735 374.421L44.7751 354.613L44.5509 354.154L20.9378 352.207L18.2849 346.768L48.254 349.692L64.4166 341.808L66.7332 346.558L50.5706 354.441L34.4263 379.859ZM54.4865 318.048L55.8103 323.427L9.60926 318.296L8.30576 313L46.8488 287.013L48.1726 292.393L15.6202 313.833L15.7016 314.164L54.4865 318.048ZM37.4461 320.135L32.1099 298.452L36.6615 297.332L41.9978 319.015L37.4461 320.135ZM44.0121 249.968L43.5151 255.485L1.49206 235.613L1.98138 230.18L46.8792 218.137L46.3822 223.654L8.62759 233.346L8.597 233.686L44.0121 249.968ZM27.2188 246.402L29.222 224.162L33.8906 224.583L31.8874 246.822L27.2188 246.402ZM49.1513 205.715L7.58128 192.447L12.0647 178.4C13.1013 175.153 14.507 172.664 16.2818 170.934C18.0431 169.2 20.0443 168.139 22.2854 167.751C24.5266 167.363 26.8718 167.56 29.3211 168.342C31.7704 169.124 33.7824 170.318 35.3573 171.924C36.9321 173.53 37.9304 175.541 38.3521 177.957C38.7603 180.368 38.4504 183.184 37.4224 186.405L33.7942 197.772L29.2474 196.32L32.8238 185.116C33.5322 182.897 33.7775 181.007 33.5599 179.446C33.3467 177.872 32.7418 176.591 31.7454 175.602C30.7397 174.595 29.4047 173.826 27.7402 173.295C26.0758 172.763 24.5218 172.61 23.0782 172.835C21.6345 173.06 20.3563 173.748 19.2435 174.899C18.1171 176.045 17.1954 177.742 16.4784 179.988L13.6536 188.838L50.7581 200.682L49.1513 205.715ZM36.723 180.188L58.6624 175.918L56.7965 181.764L34.9089 185.871L36.723 180.188ZM63.6216 163.958L25.6724 142.417L38.6723 119.515L42.7489 121.828L32.3573 140.136L45.18 147.414L54.8984 130.293L58.975 132.607L49.2566 149.728L62.1534 157.049L72.7133 138.445L76.7898 140.758L63.6216 163.958ZM86.349 126.931L82.6622 131.066L60.7556 90.0668L64.3857 85.9955L107.619 103.077L103.932 107.211L67.8367 92.4982L67.6099 92.7526L86.349 126.931ZM74.9877 114.061L89.8481 97.3943L93.3468 100.514L78.4864 117.18L74.9877 114.061ZM118.31 93.4275L113.803 96.6488L101.464 51.8312L105.902 48.6595L144.311 74.843L139.804 78.0644L107.836 55.7625L107.558 55.9608L118.31 93.4275ZM110.062 78.3707L128.228 65.3863L130.954 69.1999L112.788 82.1842L110.062 78.3707ZM164.337 29C163.256 27.1137 161.645 25.9779 159.505 25.5926C157.364 25.2072 155.079 25.5321 152.648 26.5674C150.871 27.3243 149.438 28.2742 148.35 29.4169C147.275 30.5541 146.579 31.7844 146.263 33.1079C145.959 34.4259 146.081 35.7253 146.626 37.006C147.082 38.0776 147.73 38.8905 148.568 39.4444C149.413 39.9798 150.35 40.3298 151.377 40.4944C152.399 40.6459 153.424 40.6958 154.451 40.644C155.474 40.5792 156.399 40.4862 157.227 40.365L161.772 39.7262C162.935 39.5554 164.259 39.4391 165.746 39.3772C167.246 39.3097 168.762 39.4437 170.294 39.7792C171.834 40.096 173.265 40.7371 174.587 41.7026C175.909 42.668 176.971 44.0916 177.772 45.9735C178.696 48.1429 178.963 50.3454 178.571 52.5808C178.193 54.8107 177.139 56.9038 175.41 58.8601C173.693 60.8109 171.293 62.443 168.208 63.7566C165.333 64.981 162.646 65.5774 160.147 65.5456C157.661 65.5082 155.463 64.9157 153.554 63.768C151.658 62.6148 150.164 60.9738 149.072 58.845L154.09 56.7078C154.867 58.1681 155.911 59.2056 157.222 59.8204C158.541 60.4165 159.99 60.6641 161.568 60.5633C163.154 60.4438 164.744 60.0445 166.338 59.3655C168.194 58.5751 169.732 57.5649 170.953 56.3348C172.168 55.0917 172.976 53.7441 173.377 52.292C173.772 50.8269 173.658 49.3625 173.034 47.8988C172.466 46.5658 171.632 45.6397 170.531 45.1206C169.43 44.6014 168.16 44.3393 166.722 44.3341C165.284 44.329 163.776 44.431 162.198 44.64L156.657 45.3325C153.136 45.7665 150.105 45.5367 147.563 44.6431C145.021 43.7496 143.174 41.9501 142.021 39.2449C141.064 36.9971 140.837 34.778 141.34 32.5876C141.85 30.3785 142.94 28.3704 144.61 26.5631C146.287 24.7372 148.407 23.2788 150.968 22.1879C153.556 21.0859 156.053 20.5702 158.461 20.641C160.863 20.6987 162.992 21.2742 164.847 22.3677C166.716 23.4556 168.114 24.9985 169.042 26.9963L164.337 29ZM196.191 52.3057L188.625 9.33019L193.83 8.41405L197.199 27.5516L220.113 23.5176L216.744 4.38009L221.948 3.46396L229.514 46.4395L224.31 47.3556L220.926 28.1341L198.011 32.1681L201.395 51.3896L196.191 52.3057ZM251.027 0.852793L251.083 44.4891L245.799 44.4959L245.743 0.859617L251.027 0.852793ZM270.363 1.5465L276.348 2.44262L285.3 24.3796L285.806 24.4553L300.791 6.10284L306.775 6.99896L287.383 30.0345L284.72 47.8192L279.494 47.0367L282.157 29.252L270.363 1.5465ZM309.925 53.1035L304.743 51.1449L335.158 15.9913L340.26 17.9197L339.821 64.4027L334.639 62.4442L335.428 23.4734L335.109 23.3529L309.925 53.1035ZM317.864 37.882L338.752 45.7764L337.095 50.1612L316.207 42.2668L317.864 37.882ZM371.939 83.0729L367.683 79.5272L407.922 56.2545L412.113 59.7456L396.496 103.529L392.239 99.9829L405.731 63.4134L405.469 63.1952L371.939 83.0729ZM384.42 71.2852L401.577 85.5769L398.577 89.1785L381.42 74.8869L384.42 71.2852ZM405.432 112.451L439.914 85.7093L448.95 97.3605C451.039 100.054 452.294 102.623 452.714 105.065C453.145 107.499 452.886 109.749 451.937 111.816C450.987 113.882 449.496 115.704 447.464 117.279C445.433 118.855 443.309 119.837 441.093 120.225C438.878 120.613 436.655 120.296 434.425 119.275C432.207 118.246 430.061 116.395 427.99 113.723L420.678 104.295L424.449 101.37L431.657 110.664C433.084 112.505 434.503 113.777 435.912 114.482C437.33 115.198 438.729 115.425 440.108 115.165C441.508 114.906 442.898 114.242 444.278 113.171C445.659 112.1 446.665 110.906 447.298 109.589C447.93 108.272 448.087 106.829 447.769 105.26C447.462 103.682 446.587 101.962 445.142 100.098L439.448 92.7575L408.67 116.626L405.432 112.451ZM433.51 116.669L424.6 137.168L420.84 132.318L429.853 111.955L433.51 116.669ZM431.649 148.031L470.895 128.955L482.408 152.64L478.192 154.689L468.989 135.756L455.728 142.202L464.335 159.909L460.119 161.958L451.513 144.251L438.175 150.734L447.527 169.974L443.311 172.023L431.649 148.031ZM449.285 187.734L447.971 182.352L494.162 187.57L495.456 192.869L456.864 218.783L455.55 213.401L488.143 192.022L488.062 191.691L449.285 187.734ZM466.329 185.679L471.624 207.372L467.071 208.483L461.775 186.791L466.329 185.679ZM458.739 233.058L458.647 227.519L502.542 242.821L502.631 248.275L459.265 265.014L459.174 259.475L495.687 245.832L495.681 245.491L458.739 233.058ZM475.815 234.823L476.183 257.149L471.496 257.226L471.129 234.9L475.815 234.823ZM485.674 307.497C487.841 307.675 489.69 306.992 491.22 305.446C492.751 303.901 493.778 301.834 494.303 299.245C494.687 297.351 494.716 295.633 494.391 294.089C494.064 292.558 493.444 291.288 492.533 290.277C491.619 289.28 490.48 288.644 489.115 288.367C487.974 288.136 486.937 288.209 486.006 288.585C485.086 288.978 484.267 289.552 483.549 290.305C482.845 291.061 482.223 291.877 481.683 292.753C481.157 293.632 480.709 294.447 480.34 295.198L478.29 299.305C477.772 300.359 477.118 301.517 476.326 302.777C475.532 304.05 474.562 305.224 473.417 306.296C472.283 307.385 470.944 308.201 469.4 308.743C467.855 309.285 466.08 309.353 464.076 308.947C461.765 308.479 459.799 307.45 458.179 305.861C456.556 304.286 455.429 302.231 454.797 299.697C454.163 297.177 454.178 294.275 454.844 290.989C455.465 287.926 456.496 285.374 457.939 283.333C459.379 281.306 461.112 279.831 463.14 278.909C465.164 278 467.363 277.699 469.736 278.006L468.653 283.352C467.01 283.164 465.563 283.436 464.313 284.168C463.075 284.917 462.05 285.97 461.238 287.328C460.438 288.702 459.866 290.238 459.522 291.937C459.121 293.914 459.082 295.754 459.403 297.456C459.739 299.162 460.391 300.591 461.361 301.744C462.344 302.9 463.615 303.636 465.175 303.952C466.595 304.24 467.83 304.077 468.882 303.464C469.934 302.851 470.869 301.954 471.689 300.772C472.508 299.59 473.279 298.289 474.001 296.87L476.571 291.913C478.208 288.766 480.115 286.399 482.292 284.811C484.469 283.223 486.998 282.721 489.88 283.305C492.275 283.79 494.232 284.86 495.752 286.516C497.282 288.189 498.319 290.225 498.862 292.625C499.416 295.041 499.416 297.614 498.863 300.343C498.305 303.099 497.314 305.449 495.891 307.393C494.482 309.339 492.802 310.767 490.849 311.676C488.894 312.599 486.831 312.876 484.659 312.509L485.674 307.497ZM448.419 320.534L488.113 338.66L485.918 343.467L468.242 335.395L458.577 356.56L476.252 364.632L474.057 369.438L434.364 351.312L436.559 346.505L454.313 354.612L463.978 333.448L446.224 325.34L448.419 320.534ZM459.69 394.907L423.736 370.18L426.73 365.826L462.684 390.553L459.69 394.907ZM448.117 410.455L443.978 414.869L420.84 409.766L420.491 410.139L427.073 432.9L422.934 437.315L415.004 408.266L401.885 395.967L405.499 392.112L418.618 404.411L448.117 410.455ZM383.222 413.716L387.77 410.554L399.526 455.528L395.048 458.642L356.981 431.962L361.53 428.799L393.206 451.514L393.486 451.319L383.222 413.716ZM391.273 428.879L372.94 441.626L370.264 437.778L388.597 425.03L391.273 428.879ZM323.399 447.851L328.733 446.356L325.081 492.697L319.829 494.169L292.625 456.475L297.959 454.98L320.428 486.832L320.756 486.74L323.399 447.851ZM326.03 464.816L304.528 470.841L303.264 466.328L324.765 460.302L326.03 464.816ZM280.211 458.768L282.629 502.338L267.907 503.155C264.503 503.344 261.677 502.917 259.428 501.875C257.18 500.848 255.476 499.356 254.315 497.4C253.153 495.445 252.501 493.183 252.359 490.616C252.217 488.049 252.615 485.744 253.554 483.7C254.494 481.656 256.017 480.007 258.124 478.752C260.232 477.511 262.973 476.797 266.349 476.609L278.262 475.948L278.527 480.714L266.783 481.365C264.457 481.494 262.604 481.939 261.224 482.698C259.829 483.458 258.847 484.48 258.278 485.764C257.696 487.062 257.453 488.584 257.55 490.328C257.647 492.073 258.057 493.579 258.782 494.848C259.507 496.116 260.605 497.065 262.077 497.695C263.55 498.339 265.463 498.596 267.818 498.465L277.093 497.95L274.935 459.061L280.211 458.768ZM260.789 479.479L248.981 460.501L255.108 460.161L266.746 479.148L260.789 479.479ZM236.023 460.215L230.116 503.449L204.024 499.884L204.658 495.24L225.516 498.09L227.511 483.481L208.005 480.816L208.64 476.172L228.146 478.837L230.153 464.144L208.958 461.248L209.593 456.603L236.023 460.215Z" fill="white"/>
</svg>
