<svg width="503" height="504" viewBox="0 0 503 504" fill="none" xmlns="http://www.w3.org/2000/svg">
<path d="M162.338 487.154L177.902 446.387L182.838 448.272L167.275 489.039L162.338 487.154ZM145.722 474.882L143.424 478.968L114.901 462.921L117.199 458.836L129.158 465.563L148.255 431.618L152.86 434.209L133.763 468.154L145.722 474.882ZM127.732 418.416L131.905 422.06L91.133 444.388L87.0246 440.8L103.659 397.393L107.832 401.037L93.4913 437.282L93.7481 437.506L127.732 418.416ZM114.979 429.91L98.1604 415.222L101.244 411.691L118.063 426.379L114.979 429.91ZM59.0719 412.786L55.5117 407.58L77.0391 374.893L76.7505 374.471L38.4806 382.677L34.9205 377.471L70.9395 352.838L73.7299 356.918L46.3639 375.633L46.6044 375.985L81.6681 368.526L84.3623 372.466L64.6939 402.437L64.9345 402.788L92.3005 384.073L95.0909 388.154L59.0719 412.786ZM20.4002 351.162L60.5014 333.956L62.5848 338.812L22.4837 356.018L20.4002 351.162ZM48.4608 294.689L49.1766 300.182L3.83564 289.932L3.13081 284.524L44.3309 262.997L45.0468 268.49L10.3067 286.167L10.3508 286.505L48.4608 294.689ZM31.2939 294.863L28.4085 272.721L33.0567 272.115L35.9421 294.257L31.2939 294.863ZM43.8301 250.38L0.357458 246.604L1.63343 231.915C1.92845 228.518 2.75082 225.781 4.10053 223.703C5.43609 221.623 7.15409 220.147 9.25453 219.274C11.355 218.401 13.6859 218.076 16.2473 218.299C18.8086 218.521 21.0344 219.242 22.9246 220.461C24.8149 221.681 26.232 223.422 27.176 225.686C28.1059 227.948 28.4245 230.763 28.132 234.131L27.0994 246.018L22.3446 245.605L23.3624 233.888C23.564 231.567 23.3866 229.67 22.8303 228.195C22.2752 226.707 21.4026 225.59 20.2126 224.845C19.0097 224.085 17.538 223.629 15.7974 223.478C14.0567 223.327 12.5072 223.52 11.1488 224.058C9.79029 224.596 8.6952 225.549 7.86349 226.917C7.01762 228.283 6.49265 230.141 6.28859 232.49L5.48466 241.745L44.2874 245.116L43.8301 250.38ZM26.0789 228.221L46.5369 219.219L46.0059 225.332L25.5626 234.164L26.0789 228.221ZM48.7362 206.458L6.96942 193.822L14.5954 168.615L19.0821 169.973L12.9862 190.122L27.0988 194.392L32.7998 175.548L37.2865 176.905L31.5855 195.749L45.7797 200.043L51.9743 179.568L56.4609 180.925L48.7362 206.458ZM62.7401 165.335L60.051 170.179L29.6781 134.988L32.3258 130.22L78.254 137.393L75.565 142.236L37.1202 135.806L36.9547 136.104L62.7401 165.335ZM48.8304 155.273L59.6695 135.75L63.7677 138.026L52.9286 157.548L48.8304 155.273ZM54.2672 95.4862L88.429 122.636L85.1414 126.773L50.9796 99.623L54.2672 95.4862ZM70.9152 83.4087L67.707 79.9911L91.5681 57.5919L94.7763 61.0095L84.772 70.4008L111.429 98.798L107.577 102.415L80.9195 74.0173L70.9152 83.4087ZM130.179 83.1778L125.451 86.0651L116.383 40.4731L121.038 37.6303L157.455 66.5207L152.727 69.4079L122.454 44.8545L122.163 45.0322L130.179 83.1778ZM123.041 67.5644L142.098 55.9266L144.541 59.9271L125.484 71.5649L123.041 67.5644ZM156.224 19.3561L162.262 17.5325L186.931 47.9192L187.42 47.7714L191.143 8.8091L197.181 6.98556L209.798 48.7581L205.066 50.1874L195.48 18.45L195.072 18.5732L191.604 54.2534L187.035 55.6333L164.395 27.8388L163.987 27.962L173.573 59.6993L168.841 61.1286L156.224 19.3561ZM226.712 1.09085L230.948 44.5212L225.689 45.0341L221.453 1.60375L226.712 1.09085ZM272.024 44.8459L266.568 43.8865L289.906 3.68422L295.278 4.62883L303.502 50.3806L298.046 49.4213L291.564 10.9851L291.228 10.9261L272.024 44.8459ZM276.991 28.4122L298.983 32.2792L298.171 36.8958L276.179 33.0289L276.991 28.4122ZM315.685 53.6901L332.411 13.3865L346.029 19.038C349.177 20.3447 351.539 21.9552 353.113 23.8695C354.692 25.7707 355.581 27.8542 355.778 30.1201C355.976 32.386 355.582 34.7063 354.597 37.0809C353.611 39.4556 352.252 41.3598 350.519 42.7937C348.786 44.2275 346.698 45.0527 344.255 45.2693C341.818 45.4727 339.038 44.9265 335.915 43.6307L324.895 39.0572L326.724 34.649L337.587 39.1571C339.739 40.0501 341.601 40.4539 343.174 40.3686C344.761 40.2888 346.089 39.7941 347.158 38.8846C348.246 37.9674 349.125 36.7019 349.795 35.0882C350.465 33.4745 350.748 31.9389 350.646 30.4814C350.543 29.024 349.965 27.6923 348.912 26.4864C347.865 25.2674 346.252 24.206 344.075 23.3022L335.494 19.7414L320.565 55.7155L315.685 53.6901ZM342.169 43.4579L344.574 65.6791L338.906 63.3271L336.659 41.1711L342.169 43.4579ZM356.073 71.6298L380.743 35.6366L402.466 50.5254L399.816 54.3919L382.452 42.4904L374.116 54.6522L390.355 65.7827L387.705 69.6492L371.466 58.5187L363.082 70.7507L380.727 82.8449L378.077 86.7114L356.073 71.6298ZM391.052 97.3999L387.239 93.3808L429.924 74.9736L433.678 78.9309L413.048 120.587L409.235 116.568L426.91 81.827L426.676 81.5797L391.052 97.3999ZM404.826 87.1528L420.194 103.353L416.793 106.579L401.425 90.3788L404.826 87.1528ZM460.202 110.232L424.081 134.715L421.116 130.341L457.237 105.858L460.202 110.232ZM466.774 129.79L470.997 127.758L485.189 157.248L480.965 159.281L475.015 146.916L439.919 163.806L437.627 159.044L472.724 142.155L466.774 129.79ZM449.169 186.385L447.846 181.006L494.047 186.137L495.35 191.434L456.806 217.419L455.483 212.04L488.036 190.6L487.954 190.269L449.169 186.385ZM466.21 184.298L471.546 205.981L466.994 207.101L461.658 185.418L466.21 184.298ZM502.147 230.43L502.071 236.736L465.673 251.127L465.667 251.638L501.706 266.905L501.63 273.211L457.997 272.683L458.057 267.741L491.208 268.141L491.213 267.715L458.227 253.679L458.284 248.907L491.6 235.672L491.605 235.246L458.454 234.845L458.514 229.902L502.147 230.43ZM498.406 303.086L455.696 294.142L456.779 288.97L499.489 297.914L498.406 303.086ZM443.042 333.216L445.607 328.306L476.868 362.709L474.343 367.544L428.246 361.546L430.811 356.635L469.407 362.082L469.565 361.78L443.042 333.216ZM457.204 342.921L446.867 362.713L442.712 360.543L453.049 340.75L457.204 342.921ZM421.412 372.162L454.803 400.254L445.311 411.536C443.117 414.145 440.87 415.911 438.57 416.835C436.281 417.769 434.027 417.988 431.807 417.494C429.587 417 427.493 415.925 425.525 414.27C423.558 412.615 422.152 410.745 421.307 408.66C420.462 406.576 420.304 404.336 420.833 401.942C421.374 399.556 422.732 397.07 424.909 394.483L432.59 385.352L436.242 388.425L428.671 397.425C427.171 399.208 426.225 400.862 425.832 402.388C425.43 403.925 425.502 405.34 426.047 406.634C426.593 407.948 427.535 409.167 428.872 410.292C430.209 411.416 431.588 412.149 433.009 412.491C434.429 412.832 435.873 412.682 437.34 412.042C438.818 411.41 440.316 410.192 441.834 408.388L447.815 401.279L418.01 376.205L421.412 372.162ZM423.189 400.498L401.276 396.097L405.226 391.401L427.03 395.933L423.189 400.498ZM392.142 405.278L419.096 439.595L398.385 455.862L395.49 452.176L412.045 439.172L402.937 427.577L387.455 439.738L384.559 436.052L400.042 423.891L390.882 412.229L374.059 425.442L371.163 421.756L392.142 405.278ZM357.076 430.928L362.055 428.5L366.78 474.744L361.878 477.135L328.349 444.937L333.329 442.509L361.15 469.809L361.456 469.66L357.076 430.928ZM362.709 447.145L342.638 456.933L340.584 452.72L360.654 442.932L362.709 447.145ZM323.98 493.026L311.555 451.196L316.62 449.691L329.046 491.521L323.98 493.026ZM303.339 493.382L303.999 498.023L271.598 502.632L270.938 497.991L284.523 496.059L279.038 457.498L284.269 456.754L289.754 495.314L303.339 493.382ZM254.711 459.607L260.244 459.878L242.104 502.677L236.656 502.41L222.789 458.041L228.322 458.313L239.547 495.64L239.888 495.657L254.711 459.607ZM251.833 476.531L229.531 475.438L229.76 470.756L252.063 471.85L251.833 476.531Z" fill="white"/>
</svg>
