<svg width="504" height="504" viewBox="0 0 504 504" fill="none" xmlns="http://www.w3.org/2000/svg">
<path d="M193.293 451.968L198.471 453.937L167.984 489.028L162.886 487.089L163.42 440.607L168.598 442.577L167.729 481.546L168.048 481.667L193.293 451.968ZM185.322 467.173L164.451 459.236L166.117 454.855L186.988 462.792L185.322 467.173ZM152.075 435.067L128.087 471.519L115.77 463.413C112.923 461.539 110.905 459.515 109.718 457.339C108.523 455.175 108.041 452.962 108.272 450.699C108.503 448.437 109.325 446.231 110.738 444.084C112.152 441.936 113.844 440.321 115.815 439.237C117.786 438.154 119.992 437.735 122.432 437.98C124.865 438.238 127.493 439.295 130.317 441.154L140.284 447.713L137.66 451.7L127.836 445.234C125.89 443.954 124.136 443.208 122.575 442.997C121.001 442.777 119.604 443.014 118.383 443.707C117.142 444.404 116.042 445.482 115.081 446.942C114.121 448.401 113.554 449.856 113.382 451.307C113.209 452.758 113.527 454.174 114.335 455.556C115.135 456.95 116.52 458.295 118.49 459.591L126.25 464.698L147.661 432.162L152.075 435.067ZM124.141 440.151L125.947 417.873L131.073 421.246L129.125 443.43L124.141 440.151ZM115.761 409.875L84.8193 440.644L66.2494 421.971L69.5732 418.665L84.4171 433.592L94.8719 423.195L80.9896 409.236L84.3134 405.93L98.1957 419.89L108.711 409.433L93.6267 394.265L96.9505 390.959L115.761 409.875ZM86.193 378.04L89.1898 382.7L43.8219 392.83L40.8712 388.242L68.9036 351.161L71.9004 355.82L48.0604 386.658L48.2448 386.945L86.193 378.04ZM70.7505 385.541L58.671 366.761L62.6134 364.225L74.6929 383.005L70.7505 385.541ZM54.5949 318.788L12.2638 329.381L10.9811 324.255L31.9813 319L31.8571 318.504L6.09843 304.743L4.42261 298.046L27.9694 311.042L46.7537 287.453L48.3054 293.654L32.3107 313.295L39.5876 317.096L53.3122 313.662L54.5949 318.788ZM22.8274 240.506C27.4289 240.42 31.4211 241.175 34.8042 242.774C38.1872 244.372 40.815 246.603 42.6876 249.466C44.5602 252.328 45.5316 255.62 45.6018 259.341C45.6721 263.062 44.8257 266.388 43.0625 269.32C41.2994 272.251 38.7576 274.58 35.4373 276.305C32.117 278.03 28.1562 278.935 23.5547 279.022C18.9532 279.109 14.961 278.354 11.5779 276.755C8.19489 275.157 5.56709 272.926 3.69452 270.063C1.82196 267.2 0.850544 263.909 0.780284 260.188C0.710024 256.467 1.55647 253.14 3.31962 250.209C5.08277 247.277 7.6245 244.949 10.9448 243.224C14.2651 241.499 18.226 240.593 22.8274 240.506ZM22.924 245.619C19.1462 245.691 15.9698 246.383 13.3947 247.696C10.8193 248.995 8.88441 250.729 7.58991 252.899C6.29515 255.054 5.67271 257.453 5.72259 260.094C5.77246 262.736 6.48515 265.116 7.86063 267.236C9.23584 269.341 11.2349 271.001 13.8577 272.216C16.4803 273.416 19.6804 273.981 23.4582 273.91C27.2359 273.838 30.4124 273.153 32.9878 271.854C35.5629 270.541 37.4979 268.807 38.7926 266.651C40.0871 264.482 40.7094 262.076 40.6595 259.435C40.6097 256.793 39.8971 254.42 38.5219 252.315C37.1464 250.195 35.1474 248.535 32.5248 247.335C29.902 246.12 26.7017 245.548 22.924 245.619ZM9.50997 187.812L10.6908 182.662L38.8522 189.118C41.7597 189.784 44.1986 191.065 46.1688 192.959C48.1284 194.837 49.4818 197.165 50.2289 199.945C50.9622 202.722 50.9463 205.779 50.1813 209.115C49.4164 212.452 48.0991 215.21 46.2294 217.39C44.3459 219.567 42.1117 221.081 39.5269 221.931C36.9313 222.764 34.1798 222.847 31.2722 222.181L3.11081 215.724L4.29161 210.574L32.0377 216.935C34.1145 217.411 36.0676 217.378 37.897 216.835C39.7125 216.29 41.2778 215.279 42.5927 213.802C43.8969 212.309 44.8204 210.378 45.3632 208.011C45.906 205.643 45.9157 203.503 45.3923 201.591C44.8551 199.675 43.8866 198.083 42.4869 196.815C41.0765 195.53 39.3328 194.649 37.256 194.173L9.50997 187.812ZM58.0398 176.807L18.8585 157.598L25.574 143.9C26.9121 141.171 28.4876 139.151 30.3005 137.841C32.1007 136.524 34.0042 135.82 36.0109 135.728C38.0049 135.63 39.9584 136.05 41.8716 136.988C43.5551 137.813 44.7984 138.794 45.6014 139.932C46.4107 141.056 46.8965 142.259 47.059 143.541C47.2278 144.81 47.1901 146.081 46.946 147.354L47.3286 147.541C47.9929 146.38 49.0047 145.381 50.3639 144.545C51.7232 143.708 53.3172 143.232 55.1458 143.116C56.9745 143 58.9219 143.448 60.9881 144.461C62.9523 145.424 64.4999 146.737 65.631 148.399C66.7621 150.06 67.3147 152.079 67.2888 154.455C67.263 156.832 66.4935 159.563 64.9803 162.649L58.0398 176.807ZM56.1569 169.999L60.7714 160.586C62.2908 157.487 62.7699 154.993 62.2088 153.104C61.6412 151.196 60.4965 149.82 58.7746 148.976C57.4482 148.326 56.0581 148.064 54.6043 148.189C53.1378 148.309 51.7601 148.828 50.4714 149.747C49.1699 150.659 48.1002 151.969 47.2623 153.679L42.5353 163.321L56.1569 169.999ZM38.4029 161.295L42.7173 152.494C43.4176 151.066 43.7685 149.64 43.7701 148.217C43.7779 146.781 43.4373 145.475 42.7483 144.299C42.0656 143.11 41.0356 142.178 39.6581 141.503C37.9363 140.659 36.182 140.542 34.3954 141.153C32.5959 141.758 31.0585 143.362 29.7829 145.964L25.3935 154.917L38.4029 161.295ZM78.7495 137.043L44.3816 110.155L60.6092 89.4131L64.301 92.3015L51.3295 108.881L62.9421 117.967L75.0733 102.461L78.7652 105.349L66.6339 120.855L78.3137 129.993L91.4952 113.145L95.1871 116.033L78.7495 137.043ZM123.832 88.7574L119.219 91.8244L108.403 46.615L112.946 43.5952L150.447 71.0632L145.834 74.1302L114.638 50.7596L114.354 50.9484L123.832 88.7574ZM116.098 73.4302L134.694 61.0679L137.289 64.9714L118.693 77.3338L116.098 73.4302ZM161.554 65.0587L145.872 24.3375L159.631 19.0388C162.813 17.8137 165.633 17.3516 168.093 17.6524C170.548 17.94 172.629 18.836 174.334 20.3406C176.04 21.8451 177.355 23.7971 178.279 26.1963C179.203 28.5956 179.532 30.912 179.265 33.1455C178.999 35.3791 178.056 37.4166 176.436 39.258C174.812 41.0862 172.422 42.6078 169.267 43.8227L158.132 48.1107L156.417 43.6568L167.393 39.4301C169.567 38.5929 171.194 37.601 172.274 36.4542C173.368 35.3024 173.989 34.0284 174.136 32.6321C174.291 31.2176 174.055 29.6951 173.427 28.0646C172.799 26.4342 171.946 25.1266 170.866 24.1419C169.787 23.1572 168.45 22.5913 166.856 22.4441C165.257 22.2836 163.357 22.6271 161.157 23.4744L152.488 26.8129L166.485 63.1598L161.554 65.0587ZM173.677 39.3846L190.743 53.8182L185.016 56.0234L168.109 41.5286L173.677 39.3846ZM203.173 50.1992L196.23 7.11886L222.229 2.92818L222.975 7.55595L202.192 10.9058L204.539 25.4622L223.975 22.3294L224.721 26.9572L205.285 30.09L207.644 44.7306L228.764 41.3265L229.51 45.9543L203.173 50.1992ZM246.276 44.7487L240.743 44.4682L258.954 1.69892L264.402 1.97503L278.195 46.3665L272.663 46.0861L261.499 8.74016L261.159 8.72291L246.276 44.7487ZM249.182 27.8286L271.483 28.959L271.245 33.6405L248.944 32.5101L249.182 27.8286ZM312.849 53.5787L328.873 12.9912L333.788 14.9317L325.839 35.0669L326.314 35.2546L352.497 22.318L358.918 24.8532L334.644 36.436L342.893 65.4406L336.948 63.0933L330.286 38.6554L322.959 42.3599L317.764 55.5191L312.849 53.5787ZM394.987 73.3772C392.374 77.1658 389.432 79.9681 386.16 81.784C382.889 83.6 379.544 84.4338 376.127 84.2852C372.709 84.1367 369.468 83.006 366.405 80.893C363.341 78.78 361.133 76.1526 359.78 73.0106C358.427 69.8687 358.018 66.4461 358.553 62.743C359.088 59.0398 360.662 55.294 363.275 51.5054C365.888 47.7169 368.83 44.9146 372.102 43.0986C375.373 41.2827 378.718 40.4489 382.135 40.5974C385.553 40.746 388.794 41.8767 391.857 43.9897C394.921 46.1027 397.129 48.7301 398.482 51.8721C399.835 55.014 400.244 58.4366 399.709 62.1397C399.174 65.8428 397.6 69.5887 394.987 73.3772ZM390.777 70.4739C392.923 67.3636 394.213 64.3796 394.648 61.522C395.095 58.6724 394.814 56.0892 393.807 53.7723C392.811 51.4634 391.226 49.5589 389.051 48.0589C386.876 46.5588 384.526 45.7495 382.003 45.6308C379.491 45.5203 376.976 46.176 374.46 47.5981C371.955 49.0282 369.63 51.2984 367.485 54.4088C365.339 57.5191 364.043 60.4991 363.597 63.3486C363.161 66.2062 363.442 68.7894 364.438 71.0983C365.445 73.4153 367.036 75.3238 369.211 76.8238C371.386 78.3239 373.73 79.1292 376.242 79.2398C378.765 79.3584 381.28 78.7027 383.785 77.2725C386.301 75.8505 388.632 73.5843 390.777 70.4739ZM445.556 93.2763L449.053 97.2384L427.389 116.355C425.152 118.328 422.69 119.563 420.002 120.06C417.334 120.557 414.653 120.299 411.959 119.285C409.276 118.262 406.801 116.467 404.536 113.9C402.271 111.334 400.798 108.655 400.117 105.865C399.447 103.066 399.52 100.368 400.336 97.7726C401.172 95.1781 402.709 92.894 404.945 90.9204L426.609 71.8042L430.105 75.7663L408.761 94.6006C407.164 96.0103 406.052 97.6165 405.426 99.419C404.811 101.212 404.72 103.073 405.153 105.002C405.606 106.933 406.636 108.809 408.243 110.63C409.85 112.451 411.583 113.707 413.442 114.396C415.312 115.077 417.17 115.218 419.016 114.82C420.882 114.423 422.614 113.52 424.212 112.111L445.556 93.2763ZM426.216 139.117L464.619 118.397L471.864 131.823C473.307 134.498 474.035 136.954 474.047 139.191C474.072 141.421 473.539 143.379 472.448 145.066C471.369 146.745 469.892 148.091 468.017 149.103C466.366 149.993 464.845 150.435 463.453 150.427C462.068 150.432 460.806 150.128 459.669 149.515C458.538 148.915 457.525 148.146 456.632 147.208L456.257 147.41C456.816 148.625 457.041 150.029 456.931 151.622C456.822 153.214 456.283 154.788 455.315 156.343C454.346 157.899 452.85 159.223 450.824 160.316C448.899 161.354 446.932 161.851 444.922 161.806C442.912 161.76 440.948 161.036 439.03 159.634C437.111 158.232 435.336 156.019 433.703 152.993L426.216 139.117ZM432.851 141.542L437.829 150.768C439.468 153.805 441.219 155.645 443.082 156.286C444.964 156.933 446.749 156.801 448.437 155.89C449.737 155.189 450.758 154.21 451.501 152.954C452.256 151.691 452.634 150.268 452.636 148.686C452.65 147.096 452.205 145.464 451.301 143.789L446.202 134.338L432.851 141.542ZM450.252 132.153L454.906 140.779C455.662 142.179 456.618 143.293 457.775 144.121C458.939 144.962 460.2 145.444 461.557 145.567C462.921 145.702 464.279 145.406 465.629 144.677C467.316 143.767 468.431 142.407 468.972 140.598C469.525 138.782 469.114 136.599 467.738 134.049L463.003 125.273L450.252 132.153ZM446.529 179.084L488.408 166.824L495.807 192.099L491.308 193.416L485.394 173.213L471.243 177.355L476.775 196.25L472.276 197.567L466.745 178.672L452.513 182.839L458.523 203.369L454.024 204.686L446.529 179.084ZM459.475 243.859L459.673 238.323L502.708 255.897L502.513 261.348L458.331 275.799L458.53 270.263L495.706 258.546L495.718 258.205L459.475 243.859ZM476.436 246.513L475.637 268.829L470.953 268.661L471.752 246.346L476.436 246.513ZM456.74 288.327L498.98 299.278L495.279 313.551C494.424 316.85 493.158 319.413 491.481 321.238C489.818 323.067 487.879 324.237 485.663 324.748C483.446 325.259 481.094 325.192 478.605 324.547C476.116 323.902 474.041 322.821 472.38 321.304C470.719 319.788 469.611 317.835 469.057 315.446C468.516 313.061 468.67 310.232 469.518 306.959L472.513 295.409L477.133 296.607L474.181 307.992C473.596 310.247 473.456 312.148 473.759 313.694C474.059 315.254 474.734 316.5 475.783 317.432C476.843 318.382 478.219 319.076 479.91 319.515C481.601 319.953 483.161 320.02 484.59 319.716C486.019 319.411 487.257 318.654 488.305 317.443C489.366 316.236 490.193 314.492 490.785 312.209L493.116 303.217L455.414 293.442L456.74 288.327ZM470.56 313.129L448.89 318.604L450.43 312.664L472.057 307.354L470.56 313.129ZM444.596 330.817L483.665 350.254L471.935 373.832L467.738 371.744L477.114 352.897L463.914 346.329L455.144 363.956L450.947 361.868L459.717 344.242L446.439 337.636L436.911 356.789L432.714 354.701L444.596 330.817ZM423.926 369.029L427.381 364.698L451.502 404.435L448.101 408.699L403.996 394.014L407.451 389.683L444.298 402.395L444.511 402.129L423.926 369.029ZM435.976 381.257L422.052 398.714L418.387 395.791L432.312 378.334L435.976 381.257ZM377.915 417.948L401.617 454.585L397.181 457.456L385.422 439.28L384.993 439.558L380.293 468.381L374.497 472.131L379.188 445.648L350.794 435.493L356.161 432.021L379.916 440.812L381.163 432.697L373.478 420.818L377.915 417.948ZM314.022 473.238C312.462 468.908 311.896 464.885 312.324 461.168C312.751 457.45 314.02 454.245 316.13 451.553C318.239 448.86 321.045 446.883 324.546 445.622C328.048 444.36 331.47 444.094 334.812 444.822C338.155 445.551 341.176 447.21 343.875 449.801C346.575 452.391 348.705 455.851 350.265 460.181C351.825 464.511 352.391 468.535 351.964 472.252C351.536 475.969 350.268 479.174 348.158 481.867C346.048 484.559 343.242 486.536 339.741 487.798C336.24 489.059 332.818 489.326 329.475 488.597C326.133 487.869 323.112 486.209 320.412 483.619C317.712 481.028 315.582 477.568 314.022 473.238ZM318.833 471.505C320.114 475.06 321.79 477.846 323.86 479.863C325.917 481.885 328.181 483.16 330.651 483.689C333.108 484.223 335.58 484.043 338.065 483.147C340.551 482.252 342.577 480.812 344.142 478.829C345.694 476.851 346.624 474.425 346.932 471.55C347.227 468.681 346.735 465.469 345.454 461.914C344.173 458.36 342.504 455.571 340.447 453.549C338.377 451.532 336.113 450.257 333.656 449.723C331.186 449.194 328.708 449.377 326.222 450.272C323.736 451.168 321.717 452.605 320.165 454.583C318.6 456.566 317.67 458.992 317.375 461.862C317.067 464.736 317.553 467.95 318.833 471.505ZM268.328 502.725L263.07 503.252L260.186 474.505C259.888 471.537 260.321 468.816 261.487 466.344C262.639 463.887 264.413 461.86 266.808 460.264C269.205 458.681 272.106 457.719 275.512 457.377C278.918 457.036 281.953 457.402 284.616 458.477C287.281 459.566 289.429 461.199 291.061 463.376C292.68 465.569 293.639 468.15 293.937 471.118L296.821 499.865L291.564 500.393L288.721 472.069C288.509 469.949 287.853 468.109 286.754 466.549C285.657 465.003 284.199 463.844 282.379 463.07C280.547 462.311 278.423 462.053 276.006 462.296C273.589 462.538 271.558 463.213 269.913 464.321C268.27 465.442 267.071 466.869 266.317 468.6C265.55 470.347 265.273 472.281 265.486 474.401L268.328 502.725ZM242.374 460.353L237.471 503.713L222.311 501.999C219.291 501.657 216.859 500.854 215.015 499.587C213.17 498.335 211.866 496.779 211.104 494.921C210.341 493.076 210.078 491.095 210.318 488.978C210.529 487.115 211.034 485.614 211.835 484.475C212.621 483.335 213.591 482.472 214.743 481.888C215.882 481.302 217.091 480.91 218.372 480.711L218.42 480.288C217.102 480.053 215.821 479.437 214.576 478.438C213.331 477.44 212.346 476.099 211.621 474.416C210.897 472.733 210.664 470.748 210.922 468.461C211.168 466.288 211.883 464.389 213.068 462.764C214.252 461.14 215.967 459.94 218.213 459.165C220.46 458.39 223.291 458.195 226.706 458.582L242.374 460.353ZM236.596 464.417L226.18 463.239C222.75 462.852 220.24 463.24 218.65 464.404C217.045 465.58 216.134 467.121 215.919 469.026C215.753 470.494 215.974 471.892 216.581 473.218C217.188 474.559 218.14 475.682 219.438 476.586C220.736 477.505 222.33 478.071 224.221 478.285L234.892 479.492L236.596 464.417ZM234.375 484.065L224.636 482.963C223.055 482.785 221.594 482.934 220.253 483.411C218.899 483.887 217.784 484.647 216.908 485.692C216.018 486.735 215.487 488.019 215.314 489.543C215.099 491.449 215.58 493.14 216.756 494.616C217.932 496.107 219.959 497.016 222.838 497.341L232.747 498.462L234.375 484.065Z" fill="white"/>
</svg>
