<svg width="504" height="505" viewBox="0 0 504 505" fill="none" xmlns="http://www.w3.org/2000/svg">
<path d="M195.767 452.77L180.037 493.473L175.108 491.568L182.113 473.443L160.41 465.055L153.406 483.181L148.477 481.276L164.207 440.573L169.136 442.478L162.1 460.683L183.803 469.07L190.838 450.866L195.767 452.77ZM122.214 468.467L144.737 431.092L149.263 433.82L126.74 471.194L122.214 468.467ZM101.818 454.019L97.148 449.78L110.512 412.993L110.133 412.649L74.808 429.503L70.138 425.264L99.4661 392.953L103.126 396.275L80.8439 420.824L81.1594 421.111L113.539 405.727L117.073 408.935L104.888 442.648L105.203 442.935L127.486 418.386L131.146 421.708L101.818 454.019ZM88.289 381.099L52.0778 405.448L37.3827 383.594L41.2726 380.979L53.0191 398.448L65.2546 390.22L54.2689 373.883L58.1588 371.267L69.1444 387.605L81.4506 379.33L69.5138 361.578L73.4036 358.962L88.289 381.099ZM19.1685 347.491L17.1163 342.621L45.8609 330.507C48.4265 329.426 50.8045 328.978 52.9949 329.165C55.1854 329.352 57.1067 330.107 58.7587 331.43C60.4107 332.753 61.7277 334.579 62.7097 336.909C63.6365 339.108 64.062 341.233 63.9862 343.284C63.8973 345.341 63.3137 347.175 62.2352 348.786C61.1568 350.396 59.59 351.635 57.535 352.501L55.5159 347.71C56.6547 347.23 57.5308 346.529 58.1444 345.608C58.7394 344.679 59.0629 343.618 59.1149 342.424C59.1668 341.231 58.9253 339.999 58.3901 338.73C57.7999 337.329 57.0033 336.262 56.0006 335.528C54.9978 334.795 53.8194 334.413 52.4655 334.382C51.0929 334.344 49.5755 334.676 47.9131 335.376L19.1685 347.491ZM8.06603 315.998L50.3136 305.077L51.6361 310.193L9.38855 321.114L8.06603 315.998ZM44.3355 264.439L44.2251 269.977L0.91681 253.088L1.02555 247.634L44.9727 232.485L44.8622 238.023L7.87662 250.328L7.86982 250.669L44.3355 264.439ZM27.3342 262.054L27.7794 239.729L32.466 239.822L32.0208 262.147L27.3342 262.054ZM46.3646 219.934L3.95471 209.66L7.42591 195.331C8.2285 192.017 9.45331 189.435 11.1003 187.583C12.7336 185.728 14.6541 184.527 16.8619 183.98C19.0697 183.433 21.423 183.463 23.9218 184.068C26.4205 184.673 28.5125 185.721 30.1978 187.211C31.8831 188.7 33.0221 190.635 33.6149 193.015C34.1938 195.391 34.0854 198.222 33.2895 201.508L30.4804 213.104L25.8418 211.981L28.6108 200.55C29.1592 198.286 29.2693 196.383 28.9411 194.842C28.6162 193.287 27.9215 192.052 26.8571 191.137C25.7823 190.204 24.3959 189.532 22.6978 189.121C20.9998 188.709 19.4388 188.667 18.0149 188.995C16.5909 189.322 15.365 190.099 14.337 191.327C13.2951 192.55 12.4967 194.308 11.9415 196.6L9.75447 205.628L47.6086 214.798L46.3646 219.934ZM32.1489 195.356L53.7283 189.534L52.2837 195.498L30.7443 201.154L32.1489 195.356ZM57.8251 177.253L18.4474 158.45L29.795 134.685L34.025 136.705L24.9543 155.702L38.2597 162.055L46.7428 144.289L50.9728 146.309L42.4897 164.075L55.872 170.465L65.0895 151.16L69.3196 153.18L57.8251 177.253ZM77.8801 138.714L74.4924 143.097L49.7643 103.735L53.0999 99.4194L97.4245 113.426L94.0368 117.81L56.9985 105.664L56.7901 105.934L77.8801 138.714ZM65.6441 126.672L79.2991 109.004L83.008 111.871L69.353 129.539L65.6441 126.672ZM106.063 104.229L78.5669 70.345L82.6699 67.0154L94.9143 82.1042L112.981 67.4432L100.737 52.3544L104.84 49.0248L132.336 82.9084L128.233 86.238L115.935 71.083L97.868 85.744L110.166 100.899L106.063 104.229ZM128.984 32.6121L150.24 70.7212L145.625 73.2952L124.369 35.1861L128.984 32.6121ZM151.709 22.0717L157.71 20.131L182.965 50.032L183.452 49.8746L186.416 10.8473L192.417 8.90667L205.844 50.4258L201.141 51.9469L190.94 20.4021L190.534 20.5332L187.761 56.274L183.22 57.7426L160.043 30.3938L159.638 30.525L169.84 62.0698L165.136 63.5908L151.709 22.0717ZM221.682 46.6403L218.64 3.11015L244.911 1.27405L245.237 5.95014L224.238 7.41783L225.266 22.1263L244.905 20.7537L245.232 25.4298L225.592 26.8024L226.626 41.5958L247.966 40.1044L248.293 44.7805L221.682 46.6403ZM285.234 3.45907L290.479 4.10213L286.683 35.0635C286.344 37.8269 285.549 40.1121 284.297 41.9192C283.045 43.7263 281.434 45.0171 279.465 45.7917C277.495 46.5663 275.255 46.7997 272.746 46.492C270.377 46.2016 268.322 45.5131 266.58 44.4267C264.841 43.3261 263.54 41.9073 262.68 40.1704C261.82 38.4334 261.525 36.4582 261.797 34.2447L266.957 34.8774C266.807 36.104 266.978 37.2127 267.472 38.2034C267.982 39.1818 268.741 39.9905 269.751 40.6294C270.76 41.2684 271.948 41.6717 273.316 41.8394C274.825 42.0243 276.147 41.8644 277.282 41.3596C278.417 40.8548 279.335 40.0228 280.035 38.8636C280.751 37.692 281.219 36.211 281.438 34.4204L285.234 3.45907ZM318.021 9.46987L306.53 51.5661L301.433 50.1747L312.923 8.07841L318.021 9.46987ZM344.762 66.57L340.017 63.7117L376.257 34.5992L380.929 37.4136L372.14 83.0601L367.394 80.2018L375.177 42.0079L374.885 41.832L344.762 66.57ZM355.309 53.024L374.437 64.5451L372.018 68.5605L352.891 57.0394L355.309 53.024ZM382.323 90.5242L412.37 58.881L423.062 69.0337C425.534 71.3812 427.163 73.7303 427.947 76.0813C428.741 78.4219 428.824 80.6854 428.198 82.8719C427.571 85.0584 426.373 87.0838 424.602 88.9482C422.832 90.8126 420.881 92.1039 418.749 92.8222C416.618 93.5405 414.373 93.5634 412.014 92.8909C409.666 92.2082 407.265 90.7029 404.814 88.375L396.162 80.1589L399.448 76.698L407.977 84.7966C409.666 86.4007 411.26 87.4446 412.76 87.9283C414.27 88.4217 415.687 88.4353 417.011 87.969C418.355 87.5022 419.629 86.6353 420.832 85.3683C422.035 84.1014 422.85 82.7691 423.276 81.3715C423.702 79.974 423.639 78.5237 423.088 77.0208C422.546 75.5076 421.421 73.9392 419.711 72.3155L412.974 65.9187L386.155 94.1628L382.323 90.5242ZM410.715 90.4529L405.005 112.062L400.555 107.837L406.389 86.3448L410.715 90.4529ZM413.619 121.731L449.499 96.8957L464.487 118.549L460.633 121.217L448.652 103.908L436.529 112.3L447.734 128.488L443.879 131.156L432.674 114.968L420.481 123.408L432.656 140.997L428.802 143.665L413.619 121.731ZM437.106 158.28L434.983 153.163L481.429 151.243L483.519 156.282L449.352 187.801L447.229 182.684L476.162 156.565L476.032 156.25L437.106 158.28ZM453.634 153.638L462.19 174.264L457.86 176.06L449.304 155.434L453.634 153.638ZM453.029 199.867L496.115 192.958L496.952 198.175L477.765 201.252L481.45 224.226L500.636 221.149L501.473 226.366L458.387 233.276L457.55 228.058L476.821 224.968L473.137 201.994L453.866 205.085L453.029 199.867ZM503.648 255.455L460.015 254.874L460.086 249.59L503.718 250.171L503.648 255.455ZM501.485 280.31L500.189 286.482L461.694 293.553L461.589 294.054L493.991 316.009L492.695 322.181L449.989 313.216L451.005 308.378L483.451 315.189L483.539 314.772L453.894 294.616L454.875 289.945L490.122 283.411L490.21 282.994L457.764 276.182L458.779 271.344L501.485 280.31ZM445.401 328.841L484.663 347.885L473.169 371.58L468.952 369.534L478.139 350.593L464.873 344.159L456.281 361.872L452.063 359.826L460.655 342.113L447.313 335.641L437.977 354.888L433.759 352.842L445.401 328.841ZM451.159 405.471L447.986 409.696L423.043 390.965C420.817 389.293 419.233 387.464 418.291 385.478C417.349 383.491 417.033 381.451 417.344 379.358C417.655 377.264 418.57 375.207 420.088 373.185C421.521 371.276 423.142 369.839 424.953 368.871C426.774 367.912 428.652 367.492 430.587 367.613C432.522 367.733 434.38 368.463 436.164 369.802L433.042 373.96C432.054 373.218 431.007 372.814 429.902 372.747C428.8 372.701 427.72 372.956 426.663 373.513C425.606 374.069 424.663 374.898 423.836 375.999C422.923 377.215 422.403 378.44 422.274 379.676C422.146 380.912 422.409 382.122 423.065 383.307C423.723 384.512 424.773 385.656 426.216 386.74L451.159 405.471ZM429.581 430.902L398.837 399.935L402.587 396.212L433.331 427.179L429.581 430.902ZM366.803 425.647L371.64 422.946L378.923 468.857L374.161 471.516L338.898 441.227L343.735 438.527L373.028 464.242L373.326 464.076L366.803 425.647ZM373.327 441.527L353.831 452.412L351.546 448.32L371.042 437.434L373.327 441.527ZM327.36 446.353L339.834 488.168L325.705 492.383C322.438 493.358 319.59 493.6 317.161 493.109C314.736 492.632 312.732 491.577 311.148 489.944C309.564 488.312 308.404 486.264 307.669 483.8C306.934 481.337 306.786 479.002 307.225 476.795C307.664 474.589 308.762 472.631 310.52 470.921C312.282 469.224 314.783 467.893 318.022 466.926L329.456 463.516L330.82 468.089L319.55 471.451C317.317 472.117 315.618 472.98 314.452 474.039C313.272 475.103 312.554 476.325 312.299 477.705C312.035 479.104 312.152 480.64 312.651 482.314C313.151 483.988 313.9 485.358 314.9 486.424C315.9 487.489 317.189 488.157 318.766 488.428C320.348 488.712 322.269 488.517 324.529 487.843L333.431 485.187L322.297 447.864L327.36 446.353ZM313.281 471.009L297.387 455.294L303.267 453.54L318.998 469.303L313.281 471.009ZM284.713 457.941L288.317 501.428L262.072 503.603L261.685 498.932L282.664 497.193L281.446 482.499L261.826 484.125L261.439 479.454L281.059 477.828L279.834 463.049L258.515 464.816L258.128 460.144L284.713 457.941ZM241.304 460.159L246.809 460.783L225.972 502.337L220.552 501.722L209.548 456.558L215.052 457.183L223.871 495.151L224.209 495.189L241.304 460.159ZM237.352 476.865L215.164 474.35L215.692 469.692L237.88 472.208L237.352 476.865Z" fill="white"/>
</svg>
